HIERARCHY
ROOT root
{
	OFFSET 0.000000 0.000000 0.000000
	CHANNELS 6 Xposition Yposition Zposition Zrotation Yrotation Xrotation
	JOINT lhip
	{
		OFFSET 0.058581 -0.082280 -0.017664
		CHANNELS 3 Zrotation Yrotation Xrotation
		JOINT lknee
		{
			OFFSET 0.043451 -0.386469 0.008037
			CHANNELS 3 Zrotation Yrotation Xrotation
			JOINT lankle
			{
				OFFSET -0.014790 -0.426874 -0.037428
				CHANNELS 3 Zrotation Yrotation Xrotation
				JOINT ltoe
				{
					OFFSET 0.041054 -0.060286 0.122042
					CHANNELS 3 Zrotation Yrotation Xrotation
					End Site
					{
						OFFSET 0.000000 0.000000 0.000000
					}
				}
			}
		}
	}
	JOINT rhip
	{
		OFFSET -0.060310 -0.090513 -0.013543
		CHANNELS 3 Zrotation Yrotation Xrotation
		JOINT rknee
		{
			OFFSET -0.043257 -0.383688 -0.004843
			CHANNELS 3 Zrotation Yrotation Xrotation
			JOINT rankle
			{
				OFFSET 0.019056 -0.420046 -0.034562
				CHANNELS 3 Zrotation Yrotation Xrotation
				JOINT rtoe
				{
					OFFSET -0.034840 -0.062106 0.130323
					CHANNELS 3 Zrotation Yrotation Xrotation
					End Site
					{
						OFFSET 0.000000 0.000000 0.000000
					}
				}
			}
		}
	}
	JOINT lowerback
	{
		OFFSET 0.004439 0.124404 -0.038385
		CHANNELS 3 Zrotation Yrotation Xrotation
		JOINT upperback
		{
			OFFSET 0.004488 0.137956 0.026820
			CHANNELS 3 Zrotation Yrotation Xrotation
			JOINT chest
			{
				OFFSET -0.002265 0.056032 0.002855
				CHANNELS 3 Zrotation Yrotation Xrotation
				JOINT lowerneck
				{
					OFFSET -0.013390 0.211636 -0.033468
					CHANNELS 3 Zrotation Yrotation Xrotation
					JOINT upperneck
					{
						OFFSET 0.010113 0.088937 0.050410
						CHANNELS 3 Zrotation Yrotation Xrotation
						End Site
						{
							OFFSET 0.000000 0.000000 0.000000
						}
					}
				}
				JOINT lclavicle
				{
					OFFSET 0.071702 0.114000 -0.018898
					CHANNELS 3 Zrotation Yrotation Xrotation
					JOINT lshoulder
					{
						OFFSET 0.122921 0.045205 -0.019046
						CHANNELS 3 Zrotation Yrotation Xrotation
						JOINT lelbow
						{
							OFFSET 0.255332 -0.015649 -0.022946
							CHANNELS 3 Zrotation Yrotation Xrotation
							JOINT lwrist
							{
								OFFSET 0.265709 0.012698 -0.007375
								CHANNELS 3 Zrotation Yrotation Xrotation
								End Site
								{
									OFFSET 0.000000 0.000000 0.000000
								}
							}
						}
					}
				}
				JOINT rclavicle
				{
					OFFSET -0.082954 0.112472 -0.023707
					CHANNELS 3 Zrotation Yrotation Xrotation
					JOINT rshoulder
					{
						OFFSET -0.113228 0.046853 -0.008472
						CHANNELS 3 Zrotation Yrotation Xrotation
						JOINT relbow
						{
							OFFSET -0.260127 -0.014369 -0.031269
							CHANNELS 3 Zrotation Yrotation Xrotation
							JOINT rwrist
							{
								OFFSET -0.269108 0.006794 -0.006027
								CHANNELS 3 Zrotation Yrotation Xrotation
								End Site
								{
									OFFSET 0.000000 0.000000 0.000000
								}
							}
						}
					}
				}
			}
		}
	}
}
MOTION
Frames: 14
Frame Time: 0.033333
1.899198 0.704474 0.888470 -87.013705 -1.121833 88.411075 6.099570 1.253318 -38.586359 -8.948762 5.146174 58.064795 6.070186 11.915973 -24.604943 0.000000 -0.000000 0.000000 0.375244 1.888852 -34.765654 -0.855473 -6.597004 61.232554 -1.271056 -10.670310 -27.280726 0.000000 -0.000000 0.000000 0.688302 2.525505 32.312020 -0.432121 3.113984 -5.193523 0.100552 2.918339 1.665162 -1.912679 -3.333721 -21.237487 -0.000070 -11.116326 -14.818192 -29.362552 -3.920232 2.161745 -47.729329 5.072767 5.904367 1.193979 -16.179771 19.766878 -11.690350 1.881654 8.819504 27.272153 14.480532 6.370485 45.440831 6.023313 9.585568 -7.035985 20.533324 16.916867 6.433275 -1.673754 14.956403 
1.892563 0.705571 0.860541 -87.031104 -0.917947 87.155757 7.446790 -0.703937 -41.822441 -8.385399 7.199601 66.860795 6.301291 13.222710 -28.294089 0.000000 -0.000000 0.000000 -0.193860 3.547165 -37.451700 -1.432277 -7.739658 69.760082 -1.006955 -10.670837 -28.770673 0.000000 -0.000000 0.000000 -0.192153 1.840404 36.785580 -0.362268 2.417343 -6.195665 0.388662 2.831691 0.809763 -1.525300 -2.125495 -24.200217 0.790292 -10.350259 -17.208302 -29.381066 -7.160284 3.020817 -48.836573 4.948830 5.920004 1.772257 -18.009538 18.339463 -10.896678 3.169328 8.588583 28.168606 16.825176 6.616992 44.954088 7.940423 7.851231 -11.370933 22.902541 9.147606 1.389563 -0.723060 14.174185 
1.885999 0.708080 0.839082 -87.243165 0.152011 87.128088 8.035605 -0.300191 -44.238933 -7.751566 6.372120 72.597222 7.475942 14.939713 -32.090110 0.000000 -0.000000 0.000000 0.436465 4.020362 -39.979788 -1.383745 -8.259998 75.412619 -0.765972 -9.880833 -29.868383 0.000000 -0.000000 0.000000 0.692749 1.735753 38.319345 -0.103082 1.966307 -7.105125 0.453534 1.960311 0.651262 -1.490032 -1.324992 -26.169195 0.062262 -10.118388 -16.762396 -29.797304 -10.057879 3.505790 -48.328443 3.094780 6.646477 1.529584 -18.664190 17.064676 -8.724369 0.951223 6.293163 27.999386 19.127531 6.724860 44.301191 10.186910 7.322939 -11.883410 24.018509 5.352313 -2.238168 2.091269 9.588350 
1.879651 0.708463 0.826242 -87.949286 0.452271 86.838399 8.879269 0.061688 -45.169858 -7.365792 7.001859 76.287383 7.201276 14.828679 -33.996926 0.000000 -0.000000 0.000000 0.266768 3.772322 -39.946856 -1.150552 -9.110007 77.250410 -1.342257 -9.663441 -32.906018 0.000000 -0.000000 0.000000 0.570518 1.734734 38.822691 -0.115515 1.959371 -6.861420 0.488139 2.024613 0.441793 -1.033999 -1.016523 -26.934279 -0.155980 -9.729857 -16.597620 -29.785239 -12.261934 2.571209 -47.546086 0.023436 6.703751 2.587047 -19.458747 13.722892 -4.751697 -0.335422 5.915424 27.803831 20.896556 6.021637 42.919034 12.157172 7.494554 -11.189025 25.464280 5.815195 -3.105797 3.187573 8.894875 
1.874658 0.708978 0.821398 -88.333951 0.134962 87.226126 9.166566 -0.545426 -45.841940 -7.332677 7.749524 77.550402 7.008505 15.367528 -34.708348 0.000000 -0.000000 0.000000 0.069128 3.342800 -40.333579 -0.781791 -9.292705 77.843152 -1.501463 -10.039735 -34.263986 0.000000 -0.000000 0.000000 -0.194878 1.630921 39.718624 -0.260805 1.780339 -9.187992 0.677119 2.079608 0.729180 -0.759242 -0.874995 -26.993468 -0.048456 -9.172752 -15.400032 -29.407738 -14.031659 2.208151 -46.830041 -2.210199 7.094480 4.753309 -21.404258 11.787653 2.436763 -1.468663 7.641568 27.469989 22.633061 5.756736 42.090685 13.868324 8.362718 -9.690579 25.425529 7.591477 -6.485475 4.004082 9.080968 
1.871149 0.709588 0.822713 -88.658098 0.347050 86.855497 9.034961 -1.237110 -45.053508 -6.701238 7.192834 77.648294 6.923080 16.153784 -35.046114 0.000000 -0.000000 0.000000 0.363705 3.561894 -39.697374 -0.642856 -9.058098 77.813227 -0.910558 -9.088499 -33.418380 0.000000 -0.000000 0.000000 -0.053279 1.517635 38.715108 -0.144204 1.545144 -7.433998 0.515037 2.496831 0.730822 -1.110055 -0.510020 -27.844525 -0.154214 -9.389045 -14.546350 -27.456848 -16.454308 1.267977 -46.615626 -5.609251 7.576208 6.360956 -23.030839 9.821853 4.221639 -3.341342 6.873498 26.465961 24.710911 5.257238 41.963676 15.851661 8.426468 -10.236452 24.719485 6.932449 -6.565585 4.413674 9.092916 
1.866510 0.710059 0.830910 -88.679220 0.344844 86.880983 8.407945 -1.996200 -43.687766 -6.308632 6.323229 76.169883 6.868015 16.565484 -34.532117 0.000000 -0.000000 0.000000 0.793656 3.274105 -38.236421 -0.441631 -8.440323 75.839697 -0.864691 -8.800823 -32.703758 0.000000 -0.000000 0.000000 -0.125564 1.453352 38.075260 -0.110420 1.127118 -7.782286 0.719592 2.363804 1.071990 -1.406184 -0.320799 -27.778658 -0.319559 -9.195448 -14.021777 -26.230794 -18.003532 0.696421 -45.824596 -7.707654 7.800798 7.343857 -25.181226 8.388007 4.414574 -3.462915 5.402834 25.949015 26.029932 4.813587 42.319774 16.667568 8.949105 -10.643757 24.994427 6.210268 -6.291631 4.288254 8.426033 
1.862438 0.710116 0.842790 -88.539402 0.390604 87.582762 7.864818 -2.475851 -42.538075 -6.268405 5.433792 73.677429 7.055285 16.498915 -33.768616 0.000000 -0.000000 0.000000 1.122567 2.827095 -36.910712 -0.224015 -8.283770 72.586678 -0.889867 -9.211181 -32.397389 0.000000 -0.000000 0.000000 -0.050853 1.487806 36.031892 0.147093 0.703055 -7.671082 0.744902 2.109256 1.210226 -1.280835 0.106976 -27.612380 -0.731063 -8.948566 -13.087972 -24.900000 -17.995766 -0.202809 -45.655068 -9.788610 8.195099 7.624787 -28.893494 7.849582 4.183269 -2.701753 3.368618 25.293626 25.816585 4.138795 43.266963 17.368123 9.914066 -11.010537 26.274062 6.090071 -5.472082 4.045537 7.931129 
1.857013 0.709815 0.858118 -88.911058 0.212880 87.898127 7.396648 -2.751568 -40.029249 -5.936895 5.081205 69.834423 6.703741 16.111941 -32.791896 0.000000 -0.000000 0.000000 1.196829 2.228443 -34.386666 0.053285 -8.149400 68.125071 -0.834288 -9.022501 -32.070048 0.000000 -0.000000 0.000000 -0.193383 1.932361 34.104078 0.235771 0.325350 -7.640399 0.702969 1.876479 1.397869 -1.228816 1.099139 -27.833775 -0.760408 -8.822008 -11.300136 -23.925864 -17.869200 -0.341497 -45.610997 -10.836056 9.054998 7.967627 -32.412505 9.206674 9.106016 -6.465932 3.427084 25.143267 25.325742 4.062035 44.050427 17.337541 10.474483 -10.943366 28.407301 5.473741 -8.545675 5.326826 5.775334 
1.851738 0.708627 0.876333 -89.315731 -0.068882 88.592677 6.950927 -2.774424 -37.400367 -6.139152 4.831270 64.882473 6.820985 15.675999 -31.022329 0.000000 -0.000000 0.000000 1.255417 1.533648 -32.053259 0.691513 -7.603790 62.890218 -1.188951 -9.192879 -31.165654 0.000000 -0.000000 0.000000 -0.344006 2.232767 31.425092 0.187858 -0.009933 -7.420312 0.495329 1.891908 1.207852 -1.199247 1.478271 -26.971537 -0.670070 -8.671680 -9.548908 -22.896376 -16.884568 -0.871152 -46.323171 -12.190600 9.701380 8.048932 -36.658205 7.436816 8.694919 -5.413617 -1.409315 24.995999 23.955294 4.061885 45.492248 16.633897 11.762907 -11.300456 30.580063 5.532626 -7.554008 5.484567 4.566640 
1.845249 0.706730 0.897484 -89.875105 -0.509278 88.925035 6.020147 -2.861189 -33.728033 -6.114722 4.170249 58.973869 6.405771 15.148443 -28.941565 0.000000 -0.000000 0.000000 1.647778 0.717582 -28.649657 0.617934 -6.439646 56.741433 -1.093302 -9.240131 -30.357076 0.000000 -0.000000 0.000000 -0.721131 2.624483 28.299919 0.037261 -0.224575 -6.894573 0.350288 1.668153 1.604075 -1.150042 1.861229 -25.795434 -0.597355 -8.121652 -7.850646 -22.651113 -16.047886 -1.034350 -46.958338 -13.194833 10.333225 8.406512 -38.355751 5.673705 12.184397 -6.219443 -3.338133 25.098006 22.676411 4.025772 46.686189 15.478658 13.259480 -10.625726 31.969312 5.863100 -9.529296 6.435747 3.452507 
1.840547 0.704868 0.921260 -90.296764 -0.715540 89.683752 5.456132 -3.109452 -30.420905 -6.035610 3.242037 52.393146 5.908035 14.061464 -25.754941 0.000000 -0.000000 0.000000 2.228101 0.054099 -25.504153 0.448055 -5.022555 49.676986 -1.099344 -9.275344 -28.071150 0.000000 -0.000000 0.000000 -0.770679 3.001805 24.694849 0.057665 -0.834760 -6.418366 0.076651 1.547325 1.938605 -0.963927 2.047974 -24.412082 -0.687950 -7.823978 -5.633437 -22.401231 -14.453199 -1.411106 -48.449447 -14.139393 10.982973 8.260913 -38.482154 5.423873 12.309189 -6.005135 -5.468035 24.680713 20.801473 3.496261 48.684390 14.357324 14.986158 -9.647641 32.486658 7.780388 -8.852844 6.327763 2.665130 
1.836653 0.700000 0.947126 -90.390431 -1.459842 90.858393 4.277052 -4.530941 -27.527567 -5.539296 2.607417 45.546249 5.202978 13.277786 -22.205652 0.000000 -0.000000 0.000000 1.742002 -1.341136 -22.834382 0.290546 -3.438698 42.549228 -0.399350 -8.574276 -24.722003 0.000000 -0.000000 0.000000 -1.154847 3.232741 20.948798 0.111993 -1.609673 -6.552875 -0.360350 1.296017 2.106325 -0.737613 2.106234 -22.704674 -0.827305 -7.555505 -2.878514 -22.522718 -12.197596 -1.474042 -50.069288 -14.437294 12.002915 7.298604 -37.789088 6.739332 11.200493 -5.710749 -6.242248 24.541767 18.172788 3.363372 50.575154 12.886305 16.892571 -8.419839 32.658804 9.834149 -8.140967 5.847309 2.570140 
1.823348 0.698682 0.969556 -91.165135 -1.676261 89.721695 3.062637 -3.372203 -19.617175 -5.114131 0.560209 35.399827 3.848743 12.346537 -18.670937 0.000000 -0.000000 0.000000 2.057010 -0.263775 -16.159491 -0.477594 -3.194037 33.799369 0.273097 -9.288410 -20.752008 0.000000 -0.000000 0.000000 -1.494517 2.921949 17.382695 -0.361062 -1.206673 -3.608957 -0.361845 0.985859 1.435555 -0.514838 1.952348 -18.619870 -0.053377 -6.780271 -3.859690 -23.510955 -11.089322 -0.537947 -50.149429 -13.510007 12.099679 5.954420 -36.451461 7.848152 8.724187 -6.645154 -5.874405 24.797303 16.649312 3.807779 51.803253 10.751589 17.599036 -7.143684 32.826312 11.518310 -5.854400 5.462496 2.423427 
